<svg xmlns="http://www.w3.org/2000/svg"
    xmlns:xlink="http://www.w3.org/1999/xlink" width="500" zoomAndPan="magnify" viewBox="0 0 375 374.999991" height="500" preserveAspectRatio="xMidYMid meet" version="1.0">
    <path fill="#281f22" d="M 179.144531 120.21875 C 183.902344 122.316406 187.777344 125.515625 190.855469 129.707031 C 191.773438 131.085938 192.664062 132.480469 193.550781 133.875 C 194.3125 135.007812 195.082031 136.132812 195.859375 137.253906 L 196.488281 138.167969 C 198.417969 140.960938 200.363281 143.742188 202.308594 146.519531 C 203.773438 148.601562 205.226562 150.6875 206.675781 152.777344 C 210.480469 158.296875 210.480469 158.296875 214.382812 163.746094 L 215.265625 164.949219 C 216.144531 165.9375 216.644531 166.285156 217.875 166.757812 C 222.90625 167.191406 227.960938 166.53125 232.949219 165.910156 C 234.21875 165.753906 235.484375 165.601562 236.753906 165.449219 C 239.898438 165.078125 243.042969 164.695312 246.183594 164.3125 C 248.855469 163.984375 251.527344 163.664062 254.199219 163.347656 C 255.4375 163.199219 256.679688 163.042969 257.917969 162.890625 C 262.628906 162.320312 266.996094 161.855469 271.5625 163.464844 C 274.183594 164.632812 276.394531 165.945312 278.125 168.273438 C 279.753906 170.867188 280.800781 173.183594 281.050781 176.273438 C 281.179688 180.003906 280.757812 183.191406 279.136719 186.578125 C 277.574219 189.199219 275.664062 191.058594 273.144531 192.753906 C 268.988281 194.738281 264.453125 195.175781 259.9375 195.746094 L 257.730469 196.035156 C 256.1875 196.234375 254.644531 196.4375 253.101562 196.632812 C 250.816406 196.929688 248.535156 197.234375 246.25 197.539062 C 242.875 197.996094 239.496094 198.441406 236.113281 198.882812 C 234.207031 199.132812 232.304688 199.386719 230.398438 199.640625 C 209.460938 202.457031 209.460938 202.457031 203.800781 200.710938 C 199.585938 198.839844 196.527344 195.636719 193.636719 192.125 L 192.558594 190.824219 L 191.75 189.730469 L 191.75 188.828125 L 190.847656 188.828125 C 190.417969 188.214844 189.996094 187.597656 189.597656 186.964844 C 188.761719 185.691406 187.8125 184.503906 186.871094 183.304688 L 186.34375 182.523438 L 186.34375 181.621094 L 185.445312 181.621094 C 184.777344 180.867188 184.777344 180.867188 184.007812 179.8125 L 183.167969 178.667969 L 182.289062 177.457031 L 181.414062 176.265625 C 179.074219 173.058594 179.074219 173.058594 178.238281 171.261719 L 177.335938 171.261719 L 177.335938 170.363281 L 176.433594 170.363281 C 180.070312 177.492188 183.773438 184.558594 187.753906 191.503906 C 189.160156 193.96875 190.496094 196.46875 191.804688 198.988281 C 192.570312 200.46875 192.570312 200.46875 193.320312 201.476562 C 194.425781 203.074219 195.261719 204.441406 195.554688 206.382812 C 195.574219 207.871094 195.515625 209.332031 195.429688 210.816406 C 195.402344 211.933594 195.378906 213.054688 195.355469 214.171875 C 195.308594 215.910156 195.238281 217.648438 195.148438 219.386719 C 194.839844 225.109375 194.839844 225.109375 195.804688 230.71875 C 197.796875 234.113281 200.820312 236.476562 203.910156 238.828125 C 204.996094 239.703125 206.035156 240.59375 207.066406 241.53125 L 207.066406 242.433594 L 207.824219 242.746094 C 209.15625 243.496094 210.0625 244.433594 211.132812 245.523438 L 211.773438 246.175781 C 212.449219 246.859375 213.121094 247.542969 213.792969 248.230469 C 214.464844 248.914062 215.136719 249.597656 215.808594 250.277344 C 216.421875 250.898438 217.03125 251.519531 217.640625 252.144531 C 218.761719 253.265625 218.761719 253.265625 220.046875 254.230469 L 221.027344 255.042969 L 221.027344 255.945312 L 221.824219 256.296875 C 222.910156 256.890625 223.648438 257.542969 224.519531 258.421875 L 225.355469 259.253906 L 225.984375 260 L 225.984375 260.898438 L 226.789062 261.269531 C 228.917969 262.40625 230.398438 264.121094 231.699219 266.128906 C 234.035156 270.289062 235.347656 274.511719 236.625 279.085938 C 237.03125 280.515625 237.441406 281.945312 237.851562 283.375 L 238.152344 284.429688 C 238.792969 286.652344 239.484375 288.859375 240.230469 291.050781 C 241.179688 293.84375 241.996094 296.648438 242.761719 299.496094 C 244.066406 304.253906 245.53125 308.945312 247.058594 313.632812 C 248.367188 317.65625 249.628906 321.6875 250.757812 325.761719 L 251.011719 326.640625 C 252.007812 330.296875 252.039062 334.160156 251.449219 337.898438 C 250.726562 340.632812 249.4375 342.980469 247.605469 345.132812 C 244.875 347.730469 241.804688 349.511719 238.144531 350.425781 L 236.792969 350.539062 L 235.933594 350.625 C 232.734375 350.804688 229.832031 349.933594 226.882812 348.734375 C 225.492188 347.988281 224.410156 347.132812 223.28125 346.03125 L 222.371094 345.191406 C 219.269531 341.867188 218.226562 337.753906 216.957031 333.503906 C 216.488281 331.960938 216.011719 330.417969 215.519531 328.882812 C 213.867188 323.632812 212.265625 318.375 210.777344 313.074219 C 209.460938 308.414062 208.015625 303.789062 206.578125 299.164062 C 206.203125 297.964844 205.835938 296.769531 205.464844 295.570312 L 204.867188 293.640625 L 204.367188 292.011719 L 203.910156 290.628906 L 203.527344 289.449219 C 202.882812 288.109375 202.050781 287.269531 200.984375 286.238281 L 199.898438 285.175781 C 199.023438 284.304688 199.023438 284.304688 198.054688 283.871094 L 198.054688 282.972656 L 197.257812 282.613281 C 196.210938 282.046875 195.488281 281.4375 194.632812 280.617188 L 193.738281 279.773438 L 192.820312 278.890625 C 192.214844 278.308594 191.609375 277.734375 191 277.15625 L 190.191406 276.378906 C 189.511719 275.722656 189.511719 275.722656 188.597656 275.3125 L 188.597656 274.414062 L 187.859375 274.109375 C 186.457031 273.324219 185.363281 272.273438 184.207031 271.175781 C 183.722656 270.722656 183.238281 270.273438 182.75 269.824219 L 182.042969 269.160156 C 180.945312 268.144531 179.8125 267.167969 178.683594 266.1875 C 177.625 265.261719 176.578125 264.324219 175.535156 263.378906 C 174.195312 262.164062 172.84375 260.964844 171.480469 259.773438 C 169.722656 258.246094 167.996094 256.683594 166.269531 255.125 C 165.328125 254.28125 164.382812 253.449219 163.429688 252.621094 C 161.589844 251.027344 159.804688 249.375 158.023438 247.714844 C 156.988281 246.757812 155.992188 245.917969 154.8125 245.132812 L 154.8125 244.234375 C 154.554688 244.128906 154.292969 244.023438 154.027344 243.914062 C 151.753906 242.613281 150.203125 240.082031 148.824219 237.90625 C 145.492188 231.691406 145.738281 224.675781 145.738281 217.835938 L 145.734375 215.445312 C 145.730469 213.289062 145.730469 211.132812 145.730469 208.976562 C 145.730469 207.628906 145.730469 206.277344 145.726562 204.929688 C 145.722656 200.207031 145.722656 195.488281 145.722656 190.769531 C 145.722656 186.386719 145.71875 182.003906 145.710938 177.621094 C 145.703125 173.84375 145.703125 170.070312 145.703125 166.292969 C 145.703125 164.042969 145.699219 161.792969 145.695312 159.542969 C 145.691406 157.425781 145.691406 155.308594 145.695312 153.191406 C 145.695312 152.417969 145.695312 151.644531 145.691406 150.875 C 145.667969 143.640625 145.972656 137.015625 149.5625 130.53125 C 151.960938 126.671875 155.136719 123.582031 159.101562 121.359375 C 165.199219 118.378906 172.75 117.933594 179.144531 120.21875 " fill-opacity="1" fill-rule="nonzero"/>
    <path fill="#b6846b" d="M 287.695312 85.226562 C 289.210938 89.0625 290.714844 92.898438 292.058594 96.800781 C 293.34375 100.535156 294.785156 104.210938 296.222656 107.890625 C 297.894531 112.167969 299.515625 116.453125 301.003906 120.796875 C 302.332031 124.664062 303.800781 128.476562 305.277344 132.289062 C 306.34375 135.078125 307.378906 137.875 308.410156 140.671875 L 309.175781 142.730469 C 309.570312 143.792969 309.960938 144.855469 310.355469 145.917969 C 311.972656 150.289062 313.613281 154.640625 315.402344 158.941406 L 315.988281 160.367188 L 316.585938 161.8125 C 316.972656 163.15625 316.972656 163.15625 316.964844 164.285156 L 316.523438 165.40625 C 315.453125 165.96875 314.546875 166.335938 313.410156 166.695312 C 312.746094 166.925781 312.085938 167.152344 311.425781 167.382812 L 310.375 167.742188 C 308.632812 168.347656 306.921875 169.027344 305.207031 169.707031 L 303.113281 170.523438 C 302.054688 170.9375 300.996094 171.351562 299.9375 171.769531 C 289.738281 175.765625 289.738281 175.765625 287.695312 175.765625 L 287.589844 174.675781 C 287.082031 170.421875 285.789062 167.183594 283.503906 163.578125 C 281.585938 161.03125 278.785156 159.605469 275.980469 158.199219 C 271.550781 156.394531 266.554688 156.730469 261.902344 157.347656 C 260.203125 157.585938 258.507812 157.832031 256.808594 158.085938 C 255.964844 158.207031 255.117188 158.328125 254.273438 158.449219 C 252.582031 158.691406 250.890625 158.9375 249.203125 159.183594 C 246.785156 159.539062 244.363281 159.886719 241.941406 160.226562 C 237.171875 160.90625 232.410156 161.621094 227.644531 162.335938 L 225.167969 162.710938 C 223.1875 163.007812 221.207031 163.304688 219.226562 163.605469 C 218.253906 162.066406 217.53125 160.582031 216.914062 158.875 L 216.359375 157.355469 L 215.765625 155.695312 C 215.550781 155.105469 215.339844 154.519531 215.125 153.933594 C 214.652344 152.632812 214.179688 151.328125 213.710938 150.023438 C 212.851562 147.644531 211.984375 145.265625 211.117188 142.886719 C 209.265625 137.796875 209.265625 137.796875 208.34375 135.253906 L 207.902344 134.046875 L 207.039062 131.664062 C 206.261719 129.527344 205.480469 127.390625 204.691406 125.257812 L 204.183594 123.882812 C 203.863281 123.007812 203.539062 122.132812 203.210938 121.261719 L 202.773438 120.070312 C 202.644531 119.722656 202.519531 119.375 202.386719 119.019531 C 202.109375 118.109375 202.109375 118.109375 202.109375 116.757812 L 203.796875 116.179688 C 208.332031 114.613281 212.828125 112.96875 217.296875 111.210938 C 219.394531 110.382812 221.507812 109.59375 223.621094 108.804688 C 225.324219 108.167969 227.023438 107.527344 228.71875 106.875 L 229.933594 106.410156 C 230.695312 106.117188 231.460938 105.824219 232.222656 105.527344 C 234.320312 104.726562 236.429688 103.953125 238.546875 103.214844 C 242.585938 101.808594 246.570312 100.292969 250.542969 98.726562 C 255.617188 96.726562 260.691406 94.761719 265.859375 93.007812 C 268.460938 92.117188 270.988281 91.09375 273.523438 90.019531 C 277.164062 88.496094 280.894531 87.234375 284.632812 85.96875 C 286.695312 85.226562 286.695312 85.226562 287.695312 85.226562 " fill-opacity="1" fill-rule="nonzero"/>
    <path fill="#b5846b" d="M 190.847656 37.480469 C 192.621094 38.242188 194.203125 39.113281 195.804688 40.183594 L 197.042969 41.015625 C 200.453125 43.40625 204.050781 46.023438 206.445312 49.476562 L 207.515625 50.542969 C 211.25 50.367188 214.910156 49.226562 218.527344 48.332031 C 221.222656 47.683594 223.65625 47.15625 226.433594 47.390625 C 227.53125 48.125 227.53125 48.125 228.234375 49.191406 C 228.6875 50.515625 228.6875 50.515625 228.6875 51.894531 C 228.023438 53.011719 228.023438 53.011719 226.882812 54.148438 C 225.65625 54.796875 224.371094 55.230469 223.054688 55.667969 L 221.925781 56.0625 C 221.136719 56.339844 220.347656 56.613281 219.554688 56.882812 C 217.902344 57.445312 216.261719 58.023438 214.617188 58.601562 C 213.839844 58.875 213.0625 59.144531 212.285156 59.414062 C 210.527344 60.023438 208.785156 60.640625 207.066406 61.355469 L 207.65625 62.761719 C 210.003906 69.1875 210.535156 76.023438 209.488281 82.78125 C 208.332031 88.867188 205.605469 94.503906 201.570312 99.207031 C 200.578125 100.292969 199.589844 101.34375 198.507812 102.34375 L 197.757812 103.066406 C 193.808594 106.742188 189.273438 109.039062 184.09375 110.453125 L 183.019531 110.761719 C 177.515625 112.113281 171.589844 111.6875 166.167969 110.175781 C 160.789062 108.503906 156.246094 105.703125 152.109375 101.894531 L 151.25 101.160156 C 146.648438 96.988281 143.949219 90.917969 141.75 85.226562 C 141.59375 84.628906 141.441406 84.03125 141.300781 83.425781 L 140.859375 82.460938 C 138.878906 76.902344 139.164062 69.894531 140.1875 64.15625 C 141.574219 57.644531 144.984375 52.070312 149.269531 47.054688 C 151.863281 44.316406 154.8125 42.222656 157.96875 40.183594 L 159.171875 39.382812 C 168.46875 33.722656 180.878906 33.703125 190.847656 37.480469 " fill-opacity="1" fill-rule="nonzero"/>
    <path fill="#281f22" d="M 142.203125 246.035156 C 145.773438 248.625 149.097656 251.496094 152.445312 254.367188 C 153.214844 255.023438 153.988281 255.683594 154.757812 256.339844 L 155.496094 256.96875 C 156.777344 258.054688 158.074219 259.078125 159.460938 260.027344 L 160.667969 260.898438 L 160.667969 261.800781 L 161.382812 262.097656 C 162.902344 262.941406 164.160156 264.027344 165.484375 265.152344 L 166.292969 265.820312 C 166.992188 266.410156 167.660156 267.03125 168.328125 267.65625 L 168.777344 269.007812 C 168.328125 270.082031 167.832031 271.132812 167.285156 272.160156 L 166.789062 273.121094 C 166.253906 274.15625 165.714844 275.1875 165.175781 276.214844 L 164.121094 278.246094 C 162.097656 282.128906 160.015625 285.976562 157.910156 289.8125 C 156.179688 292.964844 154.507812 296.132812 152.921875 299.355469 C 151.9375 301.347656 150.914062 303.316406 149.859375 305.269531 C 148.617188 307.574219 147.417969 309.902344 146.253906 312.25 C 144.949219 314.878906 143.597656 317.484375 142.203125 320.066406 C 141.113281 322.097656 140.070312 324.148438 139.046875 326.214844 C 137.570312 329.195312 136.039062 332.144531 134.453125 335.070312 C 133.972656 335.957031 133.507812 336.851562 133.058594 337.753906 C 131.644531 340.550781 129.761719 342.695312 127.335938 344.679688 C 124.722656 346.367188 121.890625 347.558594 118.777344 347.835938 C 115.378906 347.941406 112.5625 347.597656 109.488281 346.089844 C 107.996094 345.273438 106.558594 344.441406 105.265625 343.332031 L 105.265625 342.429688 L 104.363281 342.429688 C 103.929688 341.660156 103.5 340.890625 103.070312 340.121094 L 102.339844 338.820312 C 101.035156 336.230469 100.597656 333.972656 100.59375 331.082031 L 100.558594 330.140625 C 100.53125 325.414062 102.917969 321.265625 105.097656 317.203125 L 105.820312 315.839844 C 106.304688 314.921875 106.792969 314.003906 107.28125 313.089844 C 108.25 311.273438 109.207031 309.453125 110.164062 307.632812 L 110.703125 306.613281 C 112.636719 302.945312 114.539062 299.261719 116.445312 295.578125 C 117.996094 292.578125 119.5625 289.585938 121.144531 286.601562 C 122.84375 283.386719 124.480469 280.144531 126.097656 276.886719 C 127.574219 273.914062 129.109375 270.976562 130.664062 268.046875 C 131.847656 265.8125 133 263.5625 134.121094 261.292969 C 136.679688 256.136719 139.375 251.050781 142.203125 246.035156 " fill-opacity="1" fill-rule="nonzero"/>
    <path fill="#271f22" d="M 206.765625 61.988281 L 207.515625 62.257812 C 207.808594 63.25 208.097656 64.246094 208.386719 65.242188 L 208.878906 66.917969 C 210.46875 72.890625 210.371094 79.640625 208.855469 85.625 C 207.117188 91.699219 203.910156 96.707031 199.632812 101.304688 L 198.507812 102.34375 L 197.757812 103.066406 C 193.808594 106.742188 189.273438 109.039062 184.09375 110.453125 L 183.019531 110.761719 C 177.515625 112.113281 171.589844 111.6875 166.167969 110.175781 C 160.789062 108.503906 156.246094 105.703125 152.109375 101.894531 L 151.25 101.160156 C 146.667969 97.003906 143.910156 90.917969 141.75 85.226562 L 141.75 84.328125 C 146.691406 82.160156 151.710938 80.367188 156.835938 78.691406 C 160.367188 77.527344 163.878906 76.3125 167.371094 75.039062 C 171.128906 73.667969 174.914062 72.359375 178.714844 71.109375 C 181.746094 70.109375 184.75 69.035156 187.753906 67.941406 C 191.894531 66.4375 196.050781 64.976562 200.222656 63.550781 L 201.804688 63 L 203.273438 62.507812 L 204.570312 62.0625 C 205.714844 61.804688 205.714844 61.804688 206.765625 61.988281 " fill-opacity="1" fill-rule="nonzero"/>
</svg>