<svg xmlns="http://www.w3.org/2000/svg" xmlns:xlink="http://www.w3.org/1999/xlink" width="816" zoomAndPan="magnify" viewBox="0 0 612 791.999994" height="1056" preserveAspectRatio="xMidYMid meet" version="1.0"><path fill="#000000" d="M 81.371094 108.238281 C 79.007812 109.910156 78.679688 111.671875 79.953125 115.851562 C 81.265625 120.167969 86.542969 128.0625 88.113281 128.0625 C 89.011719 128.0625 89.96875 129.777344 89.957031 131.371094 C 89.949219 132.664062 89.757812 132.921875 88.339844 133.574219 C 87.457031 133.984375 85.898438 135.101562 84.878906 136.066406 C 83.355469 137.503906 82.820312 138.4375 81.882812 141.289062 L 80.738281 144.765625 L 78.898438 144.511719 C 77.890625 144.375 74.039062 144.074219 70.339844 143.84375 C 66.640625 143.617188 61.371094 143.21875 58.632812 142.957031 C 53.128906 142.441406 52.296875 142.109375 47.074219 138.34375 C 43.175781 135.53125 37.921875 133.042969 35.890625 133.042969 C 34.613281 133.042969 33.980469 133.332031 32.917969 134.394531 C 31.722656 135.59375 31.394531 136.46875 30.054688 142.09375 C 29.222656 145.585938 28.542969 149.101562 28.542969 149.910156 C 28.542969 151.671875 31.191406 160.609375 32.152344 162.089844 C 32.53125 162.667969 33.832031 164.371094 35.042969 165.878906 L 37.253906 168.621094 L 38.273438 175.234375 C 39.546875 183.503906 42.382812 191.859375 44.574219 193.804688 C 45.71875 194.820312 45.859375 195.144531 45.53125 196.011719 C 45.316406 196.570312 45.144531 198.953125 45.144531 201.3125 C 45.144531 204.90625 45.269531 205.753906 45.933594 206.574219 C 46.625 207.425781 46.652344 207.679688 46.175781 208.609375 C 45.433594 210.042969 44.566406 217.789062 44.886719 220.121094 C 45.300781 223.152344 45.914062 225.011719 46.910156 226.273438 C 47.566406 227.105469 48.027344 228.632812 48.476562 231.441406 C 49.027344 234.894531 49.046875 236.808594 48.613281 245.777344 C 48.335938 251.46875 48.097656 259.929688 48.078125 264.574219 C 48.042969 275.179688 47.105469 292.746094 45.730469 308.640625 C 44.847656 318.816406 44.453125 321.691406 43.386719 325.660156 C 42.164062 330.199219 41.929688 330.671875 38.617188 335.277344 L 35.132812 340.121094 L 34.328125 347.460938 L 33.527344 354.800781 L 35.195312 364.824219 C 37.101562 376.257812 37.210938 376.691406 40.867188 387.097656 C 43.558594 394.761719 43.566406 394.796875 44.386719 403.082031 C 45 409.265625 45.140625 412.8125 44.945312 416.988281 L 44.679688 422.589844 L 41.855469 427.988281 C 39.121094 433.210938 38.984375 433.613281 37.644531 440.527344 C 35.925781 449.390625 35.800781 449.015625 42.125 454.105469 C 46.542969 457.660156 46.738281 457.894531 49.234375 462.429688 L 51.800781 467.097656 L 52.613281 477.640625 C 53.058594 483.4375 53.519531 488.6875 53.628906 489.308594 C 53.882812 490.707031 66.523438 509.675781 71.65625 516.359375 L 75.441406 521.289062 L 75.445312 525.492188 C 75.445312 531.632812 75.519531 531.71875 83.089844 534.441406 C 88.839844 536.507812 89.359375 536.621094 92.476562 536.480469 C 94.292969 536.394531 95.78125 536.421875 95.777344 536.539062 C 95.777344 536.65625 95.078125 537.125 94.222656 537.582031 C 93 538.230469 92.332031 539.082031 91.117188 541.523438 C 90.21875 543.328125 89.566406 545.253906 89.5625 546.101562 C 89.554688 547.703125 94.113281 561.78125 95.152344 563.371094 C 95.507812 563.910156 97.21875 565.472656 98.957031 566.84375 C 101.785156 569.074219 103.265625 569.792969 105.949219 570.242188 C 107.515625 570.503906 107.21875 572.484375 104.898438 577.289062 C 103.148438 580.914062 102.785156 582.023438 102.996094 583.125 C 103.167969 584.039062 105.371094 587.140625 109.652344 592.492188 C 114.40625 598.441406 116.613281 601.585938 118.226562 604.738281 C 121.777344 611.667969 121.90625 611.820312 127.441406 615.472656 L 132.511719 618.816406 L 133.183594 621.578125 C 134.121094 625.4375 134.183594 625.546875 136.699219 627.445312 C 137.933594 628.378906 138.96875 629.183594 138.996094 629.230469 C 139.023438 629.28125 139.164062 633.5 139.304688 638.605469 L 139.566406 647.890625 L 141.390625 649.507812 C 142.394531 650.398438 144.328125 651.871094 145.691406 652.78125 L 148.171875 654.4375 L 158.1875 654.457031 L 168.207031 654.476562 L 172.769531 656.890625 L 170.863281 656.910156 C 164.066406 656.976562 159.792969 662.890625 163.492188 667.105469 C 165.980469 669.9375 168.097656 670.390625 172.476562 669.027344 C 177.113281 667.582031 179.503906 664.917969 179.058594 661.6875 L 178.820312 659.949219 L 184.699219 663.085938 C 190.507812 666.1875 190.625 666.230469 194.84375 666.632812 L 199.109375 667.046875 L 200.167969 670.222656 C 201.75 674.96875 202.832031 675.835938 208.464844 676.859375 L 211.371094 677.390625 L 216.972656 682.589844 C 220.054688 685.449219 223.863281 689.011719 225.4375 690.511719 C 228.660156 693.582031 228.332031 692.703125 230.683594 704.460938 C 232.597656 714.019531 233.046875 714.648438 237.921875 714.601562 C 239.527344 714.585938 253.914062 713.597656 269.894531 712.40625 C 285.871094 711.210938 299.050781 710.382812 299.179688 710.566406 C 299.304688 710.746094 301.875 710.675781 304.890625 710.40625 C 309.589844 709.988281 310.339844 709.824219 310.160156 709.257812 C 310.011719 708.789062 310.644531 708.183594 312.332031 707.191406 C 315.242188 705.484375 316.558594 704.339844 317.035156 703.109375 C 317.238281 702.582031 317.234375 700.476562 317.019531 698.234375 C 316.597656 693.773438 316.050781 692.75 313.054688 690.886719 C 312.066406 690.269531 311.140625 689.390625 310.996094 688.933594 C 310.523438 687.441406 311.890625 684.023438 314.015625 681.398438 C 316.308594 678.5625 316.585938 677.339844 316.585938 670.011719 L 316.585938 666.195312 L 320.175781 662.703125 C 322.148438 660.78125 324.289062 658.722656 324.925781 658.121094 C 327.375 655.832031 327.007812 652.566406 324.054688 650.410156 C 323.027344 649.660156 321.289062 648.269531 320.191406 647.324219 C 318.523438 645.890625 318.207031 645.390625 318.28125 644.3125 C 318.445312 641.839844 318.230469 641.28125 315.964844 638.246094 C 313.679688 635.195312 313.679688 635.195312 313.679688 632.152344 C 313.679688 629.90625 313.464844 628.707031 312.851562 627.5625 C 312.394531 626.710938 312.019531 625.695312 312.019531 625.300781 C 312.019531 624.367188 301.898438 615.308594 301.71875 616.082031 C 301.644531 616.402344 301.5 616.660156 301.402344 616.660156 C 301.304688 616.660156 277.277344 594.382812 248.007812 567.15625 C 225.464844 546.179688 202.917969 525.203125 180.355469 504.230469 L 165.921875 490.8125 L 165.921875 390.003906 L 410.386719 390.003906 L 410.386719 333.132812 C 410.386719 276.539062 410.390625 276.261719 411.214844 276.261719 C 411.671875 276.261719 412.046875 276.074219 412.046875 275.84375 C 412.046875 275.570312 443.453125 275.429688 505.433594 275.429688 L 598.820312 275.429688 L 598.820312 107.304688 L 82.695312 107.304688 Z M 91.214844 117.074219 C 91.214844 117.867188 92.851562 119.484375 94.726562 120.546875 C 96.75 121.683594 97.035156 122.039062 98.222656 124.894531 C 99.273438 127.417969 99.515625 128.574219 99.511719 131.042969 C 99.503906 134.570312 98.722656 137.882812 97.488281 139.617188 L 96.621094 140.835938 L 98.894531 141.949219 C 102.113281 143.523438 103.378906 144.949219 104.207031 147.929688 C 105.179688 151.429688 105.097656 152.621094 103.699219 155.390625 C 103.035156 156.707031 102.167969 158.898438 101.773438 160.253906 C 101.132812 162.460938 101.113281 163.140625 101.59375 166.667969 C 101.886719 168.835938 102.386719 171.355469 102.703125 172.261719 C 103.019531 173.171875 103.460938 175.195312 103.683594 176.757812 C 104.195312 180.359375 103.550781 181.945312 100.957031 183.464844 C 98.714844 184.78125 96.851562 184.800781 94.027344 183.539062 C 90.578125 182 90.261719 181.441406 89.9375 176.296875 C 89.78125 173.855469 89.445312 171.332031 89.191406 170.6875 C 88.933594 170.046875 88.722656 168.515625 88.722656 167.289062 C 88.722656 166.066406 88.535156 164.5625 88.304688 163.957031 C 87.835938 162.722656 83.304688 156.355469 82.183594 155.347656 C 81.269531 154.53125 74.402344 153.511719 67.554688 153.175781 C 64.703125 153.035156 59.660156 152.640625 56.351562 152.300781 C 50.886719 151.738281 50.066406 151.542969 47.445312 150.195312 C 45.859375 149.378906 43.453125 147.785156 42.101562 146.660156 C 40.746094 145.53125 39.507812 144.761719 39.347656 144.949219 C 39.1875 145.136719 38.851562 146.234375 38.597656 147.394531 C 38.183594 149.289062 38.253906 149.871094 39.316406 153.265625 C 40.289062 156.367188 40.949219 157.597656 43.039062 160.230469 C 44.433594 161.988281 45.832031 163.921875 46.140625 164.527344 C 46.453125 165.132812 47.195312 168.746094 47.792969 172.554688 C 49.003906 180.25 50.808594 186.117188 52.550781 187.988281 C 53.15625 188.644531 54.992188 189.792969 56.625 190.542969 C 59.703125 191.957031 60.722656 193 61.15625 195.171875 C 61.457031 196.664062 60.5 198.796875 59.226562 199.476562 C 58.40625 199.917969 58.425781 199.984375 59.855469 201.566406 C 61.980469 203.921875 61.867188 205.273438 59.019531 211.34375 C 57.75 214.054688 56.21875 216.789062 55.621094 217.417969 L 54.535156 218.558594 L 59.957031 218.558594 C 66.597656 218.558594 67.648438 218.753906 69.304688 220.300781 L 70.609375 221.519531 L 78.875 220.933594 L 82.183594 224.417969 C 86.703125 229.171875 89.140625 233.984375 89.140625 238.152344 C 89.140625 241.75 90.378906 243.886719 93.195312 245.132812 C 96.132812 246.433594 97.882812 246.222656 101.617188 244.121094 C 108.308594 240.359375 118.304688 238.855469 124.8125 240.632812 C 126.535156 241.105469 128.640625 241.839844 129.484375 242.269531 C 131.527344 243.304688 131.890625 243.265625 136.246094 241.558594 C 144.597656 238.285156 144.019531 238.417969 146.921875 239.101562 C 150.46875 239.9375 153.398438 239.882812 156.929688 238.910156 C 158.566406 238.460938 162.519531 237.410156 165.714844 236.574219 C 168.910156 235.742188 174.902344 233.6875 179.03125 232.015625 L 186.535156 228.972656 L 212.761719 228.679688 C 236.445312 228.417969 238.964844 228.324219 238.792969 227.726562 C 238.683594 227.363281 238.199219 225.484375 237.714844 223.546875 L 236.832031 220.027344 L 237.132812 168.441406 L 237.4375 116.851562 L 164.324219 116.851562 C 124.113281 116.851562 91.214844 116.953125 91.214844 117.074219 M 247.546875 139.164062 C 247.398438 151.4375 247.164062 174.367188 247.023438 190.121094 C 246.777344 217.996094 246.792969 218.859375 247.617188 222.292969 C 249.027344 228.148438 250.214844 230.304688 254.675781 235.070312 C 256.882812 237.425781 259 239.859375 259.382812 240.476562 C 259.765625 241.09375 260.453125 243.539062 260.90625 245.914062 L 261.734375 250.230469 L 260.566406 253.386719 C 256.519531 264.324219 251.40625 276.304688 248.703125 281.175781 C 246.796875 284.617188 245.300781 287.921875 244.761719 289.894531 C 244.289062 291.617188 243.808594 293.332031 243.316406 295.046875 L 242.75 297.023438 L 244.699219 298.023438 C 245.773438 298.574219 247.582031 299.980469 248.726562 301.152344 C 250.785156 303.261719 250.800781 303.300781 250.75 305.855469 C 250.722656 307.273438 250.378906 310.207031 249.984375 312.375 C 249.589844 314.542969 249.089844 317.535156 248.871094 319.019531 C 248.65625 320.5 248.375 334.933594 248.246094 351.085938 L 248.015625 380.457031 L 400.839844 380.457031 L 400.839844 336.886719 C 400.839844 294.019531 400.761719 291.203125 399.574219 291.203125 C 399.40625 291.203125 399.179688 291.4375 399.070312 291.722656 C 398.960938 292.007812 397.246094 293.15625 395.257812 294.269531 C 391.652344 296.292969 391.640625 296.296875 389.082031 295.945312 C 384.992188 295.378906 381.492188 295.601562 375.9375 296.78125 C 373.085938 297.386719 368.507812 298.160156 365.769531 298.503906 C 363.03125 298.84375 359.601562 299.492188 358.152344 299.9375 C 354.976562 300.917969 353.871094 300.953125 352.261719 300.121094 C 350.859375 299.394531 350.171875 298.164062 347.582031 291.710938 C 345.574219 286.71875 343.261719 283.117188 341.78125 282.671875 C 341.277344 282.519531 339.71875 281.855469 338.320312 281.199219 C 335.230469 279.746094 334.625 278.675781 334.226562 273.976562 L 333.945312 270.65625 L 328.148438 265.257812 L 327.105469 259.863281 C 326.535156 256.894531 325.996094 254.246094 325.914062 253.972656 C 325.820312 253.667969 324.496094 254.242188 322.40625 255.5 C 319.691406 257.128906 318.542969 257.570312 316.414062 257.800781 C 314.960938 257.953125 313.390625 257.957031 312.914062 257.808594 C 312.011719 257.523438 307.082031 252.214844 306.269531 250.652344 C 305.648438 249.464844 305.652344 242.015625 306.277344 240.84375 C 306.542969 240.34375 307.5 238.957031 308.402344 237.757812 L 310.042969 235.578125 L 309.847656 231.53125 C 309.738281 229.304688 309.898438 225.054688 310.203125 222.085938 C 310.507812 219.117188 310.761719 215.824219 310.765625 214.761719 C 310.773438 213.023438 310.667969 212.808594 309.683594 212.5625 C 308.050781 212.152344 300.441406 205.710938 296.773438 201.636719 C 288.027344 191.921875 283.882812 187.671875 280.117188 184.5625 C 275.816406 181.015625 275.535156 180.605469 273.484375 174.96875 C 273.027344 173.714844 272.46875 171.226562 272.242188 169.441406 C 271.859375 166.414062 271.675781 165.992188 269.558594 163.214844 C 268.3125 161.574219 266.519531 158.695312 265.582031 156.816406 L 263.875 153.402344 L 263.875 116.851562 L 247.820312 116.851562 Z M 273.421875 134.09375 L 273.421875 151.335938 L 274.507812 153.480469 C 275.105469 154.664062 276.566406 156.851562 277.757812 158.347656 C 281.0625 162.5 281.21875 162.847656 281.679688 167.0625 C 282.367188 173.304688 283 174.585938 287.117188 178.105469 C 291.222656 181.617188 296.527344 186.996094 302.25 193.441406 C 304.476562 195.953125 307.722656 199.175781 309.460938 200.605469 C 312.449219 203.054688 312.742188 203.199219 314.804688 203.199219 C 319.554688 203.199219 320.710938 206.328125 320.078125 217.519531 C 319.886719 220.945312 319.695312 226.828125 319.648438 230.597656 C 319.605469 234.363281 319.550781 237.75 319.53125 238.125 C 319.507812 238.496094 318.652344 240.03125 317.625 241.53125 C 315.851562 244.117188 315.441406 245.488281 316.003906 246.949219 C 316.226562 247.527344 316.378906 247.53125 317.457031 246.972656 C 318.117188 246.628906 319.265625 245.675781 320.007812 244.851562 C 322.214844 242.402344 325.144531 241.636719 328.558594 242.617188 C 330.324219 243.125 334.175781 246.398438 334.78125 247.910156 C 335.039062 248.546875 335.714844 251.5 336.289062 254.464844 L 337.328125 259.863281 L 340.027344 262.511719 C 342.636719 265.070312 343.554688 266.773438 343.5625 269.046875 C 343.570312 271.890625 344.019531 272.578125 346.640625 273.753906 C 348.828125 274.734375 349.527344 275.351562 351.652344 278.171875 C 353.203125 280.230469 354.722656 282.917969 355.738281 285.394531 C 356.628906 287.5625 357.390625 289.378906 357.433594 289.429688 C 357.664062 289.699219 368.503906 288.046875 375.816406 286.628906 C 383.300781 285.175781 384.460938 285.046875 386.558594 285.433594 C 389.433594 285.964844 390.734375 285.6875 391.105469 284.457031 C 392.296875 280.5 393.730469 279.476562 397.863281 279.628906 L 400.632812 279.730469 L 400.839844 274.472656 C 401.039062 269.410156 401.089844 269.175781 402.199219 268.070312 L 403.347656 266.921875 L 497.972656 266.8125 L 592.59375 266.707031 L 592.492188 191.882812 L 592.386719 117.0625 L 432.902344 116.957031 L 273.421875 116.851562 Z M 66.105469 232.066406 C 65.417969 232.378906 63.464844 232.644531 61.742188 232.652344 L 58.628906 232.671875 L 58.613281 235.890625 C 58.523438 256.558594 56.917969 292.761719 55.28125 311.128906 C 54.324219 321.832031 54.066406 323.535156 52.566406 328.96875 C 50.933594 334.886719 50.863281 335.042969 47.664062 339.394531 L 44.417969 343.8125 L 43.890625 349.367188 L 43.363281 354.925781 L 44.917969 364.207031 C 45.777344 369.3125 46.988281 375.007812 47.613281 376.867188 L 48.746094 380.25 L 143.238281 380.351562 L 237.726562 380.457031 L 237.738281 355.238281 C 237.753906 327.769531 238.085938 319.027344 239.3125 313.621094 C 240.847656 306.875 241.011719 307.636719 237.699219 306.109375 C 235.136719 304.925781 234.632812 304.496094 233.359375 302.394531 C 232.566406 301.089844 231.914062 299.671875 231.914062 299.242188 C 231.914062 298.816406 232.835938 295.101562 233.960938 290.996094 C 235.824219 284.1875 236.289062 283.019531 239.1875 277.808594 C 241.269531 274.074219 243.914062 268.238281 246.8125 260.996094 C 251.242188 249.914062 251.25 249.898438 250.816406 247.769531 C 250.449219 245.953125 249.898438 245.105469 247.070312 241.996094 L 243.753906 238.351562 L 216.09375 238.644531 L 188.429688 238.933594 L 181.480469 241.632812 C 177.65625 243.113281 170.753906 245.34375 166.140625 246.582031 C 161.527344 247.820312 157.246094 249.027344 156.625 249.261719 C 155.050781 249.859375 149.53125 249.785156 147.039062 249.132812 C 145.019531 248.601562 144.863281 248.628906 141.226562 250.132812 C 136.746094 251.984375 132.175781 253.429688 130.792969 253.429688 C 130.238281 253.429688 128.90625 252.984375 127.828125 252.445312 C 124.59375 250.816406 121.453125 250.109375 117.476562 250.109375 C 112.996094 250.109375 109.722656 251.117188 104.496094 254.105469 C 101.09375 256.050781 100.832031 256.128906 97.210938 256.265625 L 93.453125 256.410156 L 89.738281 254.46875 C 85.113281 252.054688 84.96875 251.921875 82.15625 247.617188 C 79.894531 244.160156 79.84375 244.011719 79.585938 240.351562 C 79.285156 236.046875 79.125 235.578125 77.144531 233.191406 L 75.679688 231.425781 L 71.515625 231.460938 C 68.933594 231.480469 66.875 231.710938 66.105469 232.066406 M 52.996094 391.371094 C 53.195312 391.898438 53.773438 396.941406 54.277344 402.582031 C 55.078125 411.558594 55.136719 413.636719 54.753906 419.277344 L 54.316406 425.722656 L 51.433594 431.003906 C 48.945312 435.5625 48.425781 436.886719 47.675781 440.601562 C 47.195312 442.976562 46.804688 445.042969 46.804688 445.195312 C 46.804688 445.347656 48.492188 446.859375 50.558594 448.550781 C 54.207031 451.542969 54.40625 451.796875 57.835938 457.921875 L 61.359375 464.21875 L 61.9375 470.597656 C 62.257812 474.101562 62.648438 479.214844 62.808594 481.953125 L 63.101562 486.933594 L 69.539062 496.484375 C 73.078125 501.734375 77.957031 508.640625 80.378906 511.828125 L 84.777344 517.625 L 84.988281 521.324219 L 85.195312 525.019531 L 87.199219 525.804688 C 88.300781 526.238281 89.351562 526.496094 89.539062 526.382812 C 89.722656 526.269531 89.992188 525.371094 90.140625 524.390625 C 90.515625 521.882812 91.710938 520.109375 93.40625 519.550781 C 94.554688 519.171875 95.929688 519.25 100.390625 519.945312 C 106.382812 520.875 107.433594 521.316406 108.472656 523.328125 C 109.480469 525.273438 108.996094 527.117188 106.800781 529.691406 C 105.761719 530.90625 104.910156 532.074219 104.910156 532.289062 C 104.910156 532.503906 106.21875 534.992188 107.816406 537.816406 C 109.414062 540.644531 110.722656 543.292969 110.722656 543.707031 C 110.722656 545.359375 109.449219 547.3125 107.160156 549.179688 C 104.988281 550.949219 104.570312 551.128906 102.960938 551 C 101.980469 550.921875 101.175781 550.875 101.175781 550.890625 C 101.175781 551.367188 103.425781 557.296875 103.851562 557.945312 C 104.824219 559.429688 107.015625 560.503906 109.683594 560.800781 C 113.261719 561.203125 114.703125 561.753906 115.894531 563.167969 C 116.902344 564.363281 116.949219 564.648438 116.949219 569.761719 C 116.949219 574.984375 116.914062 575.171875 115.492188 578.300781 L 114.035156 581.496094 L 115.164062 582.992188 C 115.78125 583.816406 118.203125 586.878906 120.539062 589.800781 C 123.371094 593.335938 125.691406 596.804688 127.492188 600.175781 L 130.195312 605.246094 L 135.835938 608.925781 C 138.9375 610.945312 141.726562 613.003906 142.03125 613.492188 C 142.335938 613.976562 142.808594 615.59375 143.082031 617.074219 C 143.570312 619.710938 143.644531 619.824219 146.230469 621.832031 C 147.6875 622.964844 149.058594 624.367188 149.273438 624.945312 C 149.492188 625.527344 149.792969 629.925781 149.941406 634.71875 C 150.160156 641.820312 150.332031 643.570312 150.867188 644.164062 C 151.457031 644.816406 152.523438 644.890625 161.449219 644.890625 L 171.375 644.890625 L 182.703125 651.046875 L 194.027344 657.207031 L 199.296875 657.691406 C 202.195312 657.957031 205.078125 658.441406 205.707031 658.765625 C 206.929688 659.394531 207.6875 660.660156 209.214844 664.605469 C 210.261719 667.3125 210.324219 667.355469 214.617188 668.167969 C 217.019531 668.621094 217.074219 668.664062 227.316406 678.316406 C 232.976562 683.648438 237.8125 688.539062 238.066406 689.179688 C 238.324219 689.820312 239.101562 693.425781 239.804688 697.195312 C 240.503906 700.960938 241.210938 704.332031 241.375 704.6875 C 241.636719 705.261719 245.089844 705.070312 272.992188 702.957031 C 298.015625 701.0625 304.609375 700.441406 305.78125 699.878906 L 307.246094 699.175781 L 306.210938 698.496094 C 303.375 696.640625 302.421875 695.363281 301.835938 692.625 C 301.003906 688.734375 301.09375 687.023438 302.328125 683.289062 C 303.0625 681.0625 303.984375 679.292969 305.128906 677.921875 L 306.832031 675.875 L 307.675781 662.476562 L 310.828125 658.796875 L 313.984375 655.121094 L 312.167969 652.886719 C 309.394531 649.480469 309.085938 648.878906 308.921875 646.546875 C 308.796875 644.730469 308.4375 643.917969 306.660156 641.460938 C 304.617188 638.632812 304.550781 638.449219 304.550781 635.722656 L 304.550781 632.910156 L 295.523438 624.457031 C 290.558594 619.808594 266.511719 597.433594 242.085938 574.738281 C 217.660156 552.039062 197.582031 533.355469 197.464844 533.222656 C 197.351562 533.085938 188.179688 524.542969 177.078125 514.234375 C 165.980469 503.929688 156.78125 495.1875 156.636719 494.8125 C 156.496094 494.4375 156.375 470.796875 156.375 442.273438 L 156.375 390.417969 L 52.636719 390.417969 Z M 52.996094 391.371094 " fill-opacity="1" fill-rule="evenodd"/></svg>